<svg xmlns="http://www.w3.org/2000/svg" width="42.538" height="42.525" viewBox="0 0 42.538 42.525"><defs><style>.a{stroke:#000;stroke-width:0.7px;}</style></defs><g transform="matrix(0.995, -0.105, 0.105, 0.995, -6.078, -4.52)"><g transform="translate(5.5 9.504)"><path class="a" d="M37.834,14.957A19.006,19.006,0,1,0,43.5,28.35,19.022,19.022,0,0,0,37.834,14.957ZM12.249,16.439a17.174,17.174,0,0,1,23.637-.795L11.829,40.089a17.161,17.161,0,0,1,.42-23.65Zm24.51,24.122a17.2,17.2,0,0,1-23.637.795L37.181,16.912a17.159,17.159,0,0,1-.422,23.65Z" transform="translate(-5.5 -9.504)"/><path class="a" d="M24.645,15.461a.906.906,0,0,0-1.28.011L22.1,16.762a.905.905,0,0,0,1.29,1.271l1.269-1.29A.909.909,0,0,0,24.645,15.461Z" transform="translate(7.731 -4.89)"/><path class="a" d="M21.26,17.61,19.991,18.9a.905.905,0,0,0,1.29,1.271l1.269-1.29a.905.905,0,0,0-1.29-1.271Z" transform="translate(6.026 -3.159)"/><path class="a" d="M19.156,19.748l-1.269,1.29a.905.905,0,0,0,1.29,1.271l1.269-1.29a.905.905,0,0,0-1.29-1.271Z" transform="translate(4.322 -1.427)"/><path class="a" d="M17.051,21.887l-1.269,1.29a.905.905,0,0,0,1.29,1.271l1.269-1.29a.905.905,0,0,0-1.29-1.271Z" transform="translate(2.618 0.304)"/><path class="a" d="M14.948,24.024l-1.271,1.29a.905.905,0,0,0,1.29,1.271l1.271-1.29a.905.905,0,0,0-1.29-1.271Z" transform="translate(0.913 2.036)"/><path class="a" d="M12.844,26.162l-1.271,1.29a.905.905,0,0,0,1.29,1.271l1.271-1.29a.905.905,0,0,0-1.29-1.271Z" transform="translate(-0.791 3.767)"/><path class="a" d="M19.89,15.495a.9.9,0,0,0,.644-.27l1.271-1.29a.9.9,0,0,0-1.29-1.269l-1.271,1.29a.9.9,0,0,0,.646,1.538Z" transform="translate(5.421 -7.163)"/><path class="a" d="M17.785,17.633a.9.9,0,0,0,.644-.27l1.271-1.29A.9.9,0,0,0,18.41,14.8l-1.271,1.29a.9.9,0,0,0,.646,1.538Z" transform="translate(3.717 -5.431)"/><path class="a" d="M15.681,19.772a.9.9,0,0,0,.644-.27l1.269-1.29a.9.9,0,1,0-1.29-1.269l-1.269,1.29a.9.9,0,0,0,.646,1.538Z" transform="translate(2.013 -3.699)"/><path class="a" d="M13.577,21.909a.9.9,0,0,0,.644-.27l1.269-1.29A.9.9,0,1,0,14.2,19.08l-1.269,1.29a.9.9,0,0,0,.646,1.538Z" transform="translate(0.309 -1.968)"/><path class="a" d="M11.472,24.047a.9.9,0,0,0,.644-.27l1.269-1.29a.9.9,0,1,0-1.29-1.269l-1.269,1.29a.9.9,0,0,0,.646,1.538Z" transform="translate(-1.396 -0.237)"/><path class="a" d="M10.013,25.916l1.269-1.29a.9.9,0,1,0-1.29-1.269l-1.269,1.29a.9.9,0,1,0,1.29,1.269Z" transform="translate(-3.1 1.494)"/></g></g></svg>