<svg xmlns="http://www.w3.org/2000/svg" width="21.217" height="21.222" viewBox="0 0 21.217 21.222"><defs><style>.a{stroke:#000;stroke-width:0.3px;}</style></defs><g transform="translate(551.303 182.136) rotate(-18)"><g transform="translate(-474.516 -343.486)"><path class="a" d="M13.289,21.543A8.272,8.272,0,1,0,7.44,19.121,8.218,8.218,0,0,0,13.289,21.543Zm5.2-3.072a7.306,7.306,0,0,1-5.2,2.153c-.1,0-.205,0-.308-.008.009-.06.019-.126.032-.2a8.666,8.666,0,0,1,.343-1.337,8.886,8.886,0,0,1,.833-1.766,9.469,9.469,0,0,1,3.146-3.144,8.88,8.88,0,0,1,1.763-.83A8.65,8.65,0,0,1,20.43,13l.2-.032A7.336,7.336,0,0,1,18.488,18.471Zm2.046-6.421c-.076.011-.162.024-.261.041a9.727,9.727,0,0,0-3.417,1.293A10.394,10.394,0,0,0,13.4,16.835a9.729,9.729,0,0,0-1.3,3.424c-.017.1-.03.186-.041.262a7.339,7.339,0,0,1-6.023-6.028c.076-.011.162-.024.261-.041a9.56,9.56,0,0,0,1.475-.378,9.787,9.787,0,0,0,1.943-.915,10.392,10.392,0,0,0,3.453-3.451,9.8,9.8,0,0,0,.917-1.946,9.565,9.565,0,0,0,.379-1.479c.017-.1.03-.186.041-.262a7.338,7.338,0,0,1,6.023,6.028ZM8.09,8.072a7.306,7.306,0,0,1,5.2-2.153c.1,0,.205,0,.308.008-.009.06-.019.126-.032.2a8.667,8.667,0,0,1-.343,1.337,8.888,8.888,0,0,1-.833,1.766,9.475,9.475,0,0,1-3.146,3.145,8.868,8.868,0,0,1-1.763.83,8.626,8.626,0,0,1-1.332.342l-.2.032A7.336,7.336,0,0,1,8.09,8.072Z" transform="translate(0 0)"/></g></g></svg>