<svg xmlns="http://www.w3.org/2000/svg" width="12.953" height="11.851" viewBox="0 0 12.953 11.851"><path d="M27.619,37.7h2.159v.539A1.618,1.618,0,0,0,31.4,39.851h2.159a1.618,1.618,0,0,0,1.619-1.616V37.7h2.159a1.618,1.618,0,0,0,1.619-1.616V29.616A1.618,1.618,0,0,0,37.333,28H27.619A1.618,1.618,0,0,0,26,29.616V36.08A1.618,1.618,0,0,0,27.619,37.7Zm6.476.539a.539.539,0,0,1-.54.539H31.4a.539.539,0,0,1-.54-.539V37.7H34.1Zm-7.016-8.619a.539.539,0,0,1,.54-.539h9.714a.539.539,0,0,1,.54.539V36.08a.539.539,0,0,1-.54.539H27.619a.539.539,0,0,1-.54-.539Z" transform="translate(-26 -28)"/></svg>