<svg xmlns="http://www.w3.org/2000/svg" width="29.005" height="42.121" viewBox="0 0 29.005 42.121"><defs><style>.a{stroke:#f4f4f4;stroke-width:0.15px;}</style></defs><g transform="translate(-79.925 0.075)"><g transform="translate(80)"><path class="a" d="M108.855,14.428A14.428,14.428,0,1,0,86.883,26.7a1.3,1.3,0,0,0-.325.842V32.79A1.312,1.312,0,0,0,87.87,34.1h2.623V40.66A1.312,1.312,0,0,0,91.8,41.971h5.246a1.312,1.312,0,0,0,1.312-1.312V34.1h2.623A1.312,1.312,0,0,0,102.3,32.79V27.544a1.3,1.3,0,0,0-.325-.842A14.415,14.415,0,0,0,108.855,14.428ZM95.739,39.348H93.116V34.1h2.623Zm3.935-7.87H89.181V28.855H99.674Zm-5.246-5.246a11.8,11.8,0,1,1,11.8-11.8A11.819,11.819,0,0,1,94.428,26.232Z" transform="translate(-80)"/></g><g transform="translate(91.844 5.246)"><path class="a" d="M225.8,64h-.026a1.3,1.3,0,0,0-1.3,1.312A1.318,1.318,0,1,0,225.8,64Z" transform="translate(-224.48 -64)"/></g><g transform="translate(87.909 6.558)"><g transform="translate(0)"><path class="a" d="M177.8,80h-.026a1.3,1.3,0,0,0-1.3,1.312A1.318,1.318,0,1,0,177.8,80Z" transform="translate(-176.48 -80)"/></g></g><g transform="translate(86.597 10.493)"><g transform="translate(0)"><path class="a" d="M161.8,128h-.026a1.3,1.3,0,0,0-1.3,1.312A1.318,1.318,0,1,0,161.8,128Z" transform="translate(-160.48 -128)"/></g></g><g transform="translate(90.532 9.181)"><path class="a" d="M209.8,112h-.026a1.3,1.3,0,0,0-1.3,1.312A1.318,1.318,0,1,0,209.8,112Z" transform="translate(-208.48 -112)"/></g></g></svg>