<svg xmlns="http://www.w3.org/2000/svg" width="35.401" height="42.194" viewBox="0 0 35.401 42.194"><defs><style>.a{stroke:#000;stroke-width:0.3px;}</style></defs><g transform="translate(-4.15 -0.325)"><path class="a" d="M31.2,23.3h-.356a2.56,2.56,0,0,1-2.673-1.96V18.939a11.119,11.119,0,0,0,1.782-5.791c.624-.891,2.049-3.742-.089-8.2A7.258,7.258,0,0,0,22.563.5H21.85c-1.693,0-7.305.535-8.463,6.949a11.62,11.62,0,0,0-.535,3.029c-1.425.713-5.167,3.029-5.7,7.038a7.086,7.086,0,0,0,.624,3.742,18.006,18.006,0,0,1,1.069,2.851A7.305,7.305,0,0,0,4.3,30.7v5.969a.793.793,0,0,0,.445.713,31.731,31.731,0,0,0,17.1,4.989,30.773,30.773,0,0,0,17.1-4.989.908.908,0,0,0,.445-.713V30.7C39.4,26.6,35.748,23.3,31.2,23.3ZM14.812,17.781a5.68,5.68,0,0,0,.713,1.247v2.316a2.337,2.337,0,0,1-1.425,1.6A12.346,12.346,0,0,1,14.812,17.781Zm.624-4.276a.757.757,0,0,0,.267-.445c0-.089.445-1.782,3.831-2.494A4.107,4.107,0,0,0,21.85,9.228c.178-.178.445-.356.713,0a6.829,6.829,0,0,0,4.187,2.405c.535.178,1.425.713,1.425,1.158.089,4.276-3.029,8.2-6.325,8.2S15.881,17.692,15.436,13.5Zm1.871,8.107v-.535A7.169,7.169,0,0,0,21.85,22.77a6.631,6.631,0,0,0,4.543-1.782v.624a3.838,3.838,0,0,0,1.336,2.316l-5.88,5.88-5.88-5.88A4.687,4.687,0,0,0,17.307,21.611ZM15.169,7.892a6.436,6.436,0,0,1,6.771-5.613h.8a5.645,5.645,0,0,1,5.613,3.385,7.644,7.644,0,0,1,.8,5.256,5.387,5.387,0,0,0-2.049-1.069A4.972,4.972,0,0,1,24.077,8.07a2.215,2.215,0,0,0-3.3,0,3.716,3.716,0,0,1-1.425.8A7.291,7.291,0,0,0,14.9,11.366,5.76,5.76,0,0,1,15.169,7.892Zm-6.236,9.8c.356-2.762,2.851-4.543,4.276-5.434a1.94,1.94,0,0,0,.445.713,12.048,12.048,0,0,0,.356,2.584c-2.851,3.385-1.425,10.067-1.247,10.78a3.111,3.111,0,0,1-.713,2.584,5.853,5.853,0,0,1-1.514,1.069c1.247-3.3-.356-7.662-1.247-9.621A6.707,6.707,0,0,1,8.933,17.692Zm.267,8.2c.267,1.871.178,3.742-1.158,4.989a.806.806,0,0,0-.267.891,11.457,11.457,0,0,0-1.693-.356v-.624A5.368,5.368,0,0,1,9.2,25.888ZM6.082,33.1a6.806,6.806,0,0,1,5.88,5.88,27.314,27.314,0,0,1-5.88-2.762V33.1Zm7.751,6.414A8.8,8.8,0,0,0,9.289,32.3a6.334,6.334,0,0,0,4.187-2.049,5.113,5.113,0,0,0,1.069-4.009v-.089q-.134-.535-.267-1.336l6.86,6.86a.861.861,0,0,0,1.247,0l6.86-6.86a4.161,4.161,0,0,0,1.514.267h.356c3.564,0,6.414,2.494,6.414,5.613v.624a8.689,8.689,0,0,0-7.751,8.2,30.012,30.012,0,0,1-8.018,1.069A29.842,29.842,0,0,1,13.832,39.518Zm17.907-.535a6.993,6.993,0,0,1,5.88-5.88v3.029A29.831,29.831,0,0,1,31.739,38.984Z" transform="translate(0 0)"/></g></svg>