<svg xmlns="http://www.w3.org/2000/svg" width="38.812" height="38.812" viewBox="0 0 38.812 38.812"><defs><style>.a,.b{stroke:#000;}.a{stroke-width:0.79px;}.b{stroke-width:0.85px;}</style></defs><g transform="translate(-0.205 -0.205)"><g transform="translate(0.6 0.6)"><path class="a" d="M19.611.6A19.011,19.011,0,1,0,38.622,19.611,19,19,0,0,0,19.611.6Zm0,36.355A17.225,17.225,0,0,1,2.268,19.611,17.225,17.225,0,0,1,19.611,2.268,17.225,17.225,0,0,1,36.955,19.611,17.225,17.225,0,0,1,19.611,36.955Z" transform="translate(-0.6 -0.6)"/><path class="b" d="M31.282,11.1a5.454,5.454,0,0,0-3.169-5,1.827,1.827,0,0,0-1.334,0c-.667.167-1.167.834-1.834,1.5l-.5-.5a12.369,12.369,0,1,0,4.836,9.839,9.784,9.784,0,0,0-.667-3.836C31.282,12.271,31.282,11.437,31.282,11.1Zm-3.5,5.837A10.64,10.64,0,0,1,17.107,27.613,10.782,10.782,0,0,1,6.268,16.941,10.64,10.64,0,0,1,16.941,6.268a11.269,11.269,0,0,1,6.5,2.168c.167.167.5.334.667.5A36.783,36.783,0,0,0,22.277,12.6l-1.668,1.167a4.429,4.429,0,0,0-3.669-1.834,5,5,0,1,0,5,5,6,6,0,0,0-.334-1.834l1.5-1.167a19.8,19.8,0,0,0,4-.667A15.562,15.562,0,0,1,27.78,16.941Zm-11.173.667a.866.866,0,0,0,.667.334.613.613,0,0,0,.5-.167l2.5-1.668a7.223,7.223,0,0,0,.167.834,3.335,3.335,0,1,1-3.335-3.335,3.547,3.547,0,0,1,2.5,1.167l-2.5,1.834A.656.656,0,0,0,16.607,17.608Zm7.5-5.336c1-2,2.335-4.336,3.169-4.669h.167a3.812,3.812,0,0,1,2.168,3.5C29.281,11.437,26.946,11.938,24.111,12.271Z" transform="translate(2.071 2.071)"/></g></g></svg>