<svg xmlns="http://www.w3.org/2000/svg" width="48.237" height="48.249" viewBox="0 0 48.237 48.249"><defs><style>.a{stroke:#000;stroke-width:0.55px;}</style></defs><g transform="translate(0.347 12.005) rotate(-18)"><g transform="translate(0 0)"><path class="a" d="M18.864,37.745A18.872,18.872,0,0,0,32.208,5.528a18.873,18.873,0,1,0-26.69,26.69A18.75,18.75,0,0,0,18.864,37.745Zm11.862-7.01a16.668,16.668,0,0,1-11.862,4.913c-.235,0-.468-.008-.7-.017.02-.136.044-.289.072-.459a19.772,19.772,0,0,1,.783-3.049,20.274,20.274,0,0,1,1.9-4.029,21.6,21.6,0,0,1,7.178-7.174,20.26,20.26,0,0,1,4.022-1.895,19.737,19.737,0,0,1,3.04-.78c.171-.029.323-.052.459-.073A16.738,16.738,0,0,1,30.726,30.735Zm4.669-14.65c-.172.025-.37.055-.6.093A22.192,22.192,0,0,0,27,19.128,23.715,23.715,0,0,0,19.125,27a22.2,22.2,0,0,0-2.958,7.813c-.038.226-.068.425-.093.6A16.743,16.743,0,0,1,2.332,21.66c.172-.025.37-.055.6-.093A21.811,21.811,0,0,0,6.292,20.7a22.328,22.328,0,0,0,4.432-2.087,24.074,24.074,0,0,0,4.417-3.476,24.039,24.039,0,0,0,3.462-4.4A22.363,22.363,0,0,0,20.695,6.3a21.823,21.823,0,0,0,.866-3.374c.038-.226.068-.425.093-.6A16.743,16.743,0,0,1,35.395,16.085ZM7,7.01A16.668,16.668,0,0,1,18.864,2.1c.235,0,.468.008.7.017-.02.136-.044.289-.072.459a19.773,19.773,0,0,1-.783,3.049,20.278,20.278,0,0,1-1.9,4.029,21.883,21.883,0,0,1-3.154,4.006,21.933,21.933,0,0,1-4.025,3.168A20.233,20.233,0,0,1,5.611,18.72a19.682,19.682,0,0,1-3.04.78c-.17.029-.323.052-.459.072A16.738,16.738,0,0,1,7,7.01Z" transform="translate(0 0)"/></g></g></svg>