<svg xmlns="http://www.w3.org/2000/svg" width="37.02" height="42.471" viewBox="0 0 37.02 42.471"><defs><style>.a{stroke:#000;stroke-width:0.4px;}</style></defs><g transform="translate(-2.8 0.337)"><path class="a" d="M31.142,22.095h-.35A2.865,2.865,0,0,1,27.909,20V17.375a10.633,10.633,0,0,0,1.4-4.72c.524-.787,3.146-4.545,2.01-7.254A3.555,3.555,0,0,0,28.7,3.3c-.437-.961-1.748-2.8-5.681-3.321a13.906,13.906,0,0,0-5.943.524,19.547,19.547,0,0,1-5.244.787,7.518,7.518,0,0,1-1.4-.087.881.881,0,0,0-.961.787c0,.175-.437,4.807,2.884,7.167a4.049,4.049,0,0,0,.35,2.972l.524.524a12.361,12.361,0,0,0,1.486,4.894v2.535a3.2,3.2,0,0,1-3.234,2.1C6.758,22.182,3,25.591,3,29.873v6.205a.778.778,0,0,0,.437.7,32.735,32.735,0,0,0,17.917,5.157,32.964,32.964,0,0,0,17.829-5.157.891.891,0,0,0,.437-.7V29.873C39.62,25.591,35.775,22.095,31.142,22.095ZM14.537,8.635,14.1,10.471a6.931,6.931,0,0,1,.175-1.486,1,1,0,0,0-.437-1.049C11.74,6.887,11.39,4.353,11.3,3.042h.612A22.7,22.7,0,0,0,17.6,2.255a13.51,13.51,0,0,1,5.244-.437c3.933.524,4.37,2.36,4.37,2.447.087.35.35.7.7.7,1.486.262,1.748.961,1.835,1.136.35.961-.087,2.36-.7,3.583l-.437-2.709a.906.906,0,0,0-.524-.7,1.034,1.034,0,0,0-.874.087,10.963,10.963,0,0,1-7.167,2.185,17.051,17.051,0,0,1-4.457-.612.929.929,0,0,0-.7.087A1.409,1.409,0,0,0,14.537,8.635Zm13.11,3.321C27.472,16.414,24.762,20,21.354,20c-3.146,0-5.681-3.059-6.205-6.992a.8.8,0,0,0,.35-.524l.612-2.622a20.7,20.7,0,0,0,4.02.437,13.6,13.6,0,0,0,6.992-1.748Zm-11.1,8.3v-.524a7.047,7.047,0,0,0,4.807,2.01,7.047,7.047,0,0,0,4.807-2.01v.524a4.3,4.3,0,0,0,2.272,3.059l-1.661,5.244A1.6,1.6,0,0,1,25.2,29.7H17.421a1.6,1.6,0,0,1-1.573-1.136l-1.661-5.244A4.6,4.6,0,0,0,16.547,20.26ZM8.856,37.652a35.115,35.115,0,0,1-4.02-2.1V32.146h4.02Zm29.016-2.1a35.116,35.116,0,0,1-4.02,2.1V32.146h4.02Zm0-5.157H32.978a.826.826,0,0,0-.874.874v7.079a31.574,31.574,0,0,1-10.75,1.835A31.574,31.574,0,0,1,10.6,38.351V31.272A.826.826,0,0,0,9.73,30.4H4.835v-.612c0-3.234,3.059-5.943,6.73-5.943a4.289,4.289,0,0,0,.961-.087L14.187,29a3.384,3.384,0,0,0,3.234,2.36H25.2A3.384,3.384,0,0,0,28.433,29l1.661-5.244c.262,0,.437.087.7.087h.35c3.758,0,6.73,2.622,6.73,5.943Z" transform="translate(0 0)"/></g></svg>