<svg xmlns="http://www.w3.org/2000/svg" width="20" height="20" viewBox="0 0 20 20"><g transform="translate(-16 -14)"><g transform="translate(16 14)"><path d="M34.75,22.75H33.388a7.5,7.5,0,0,0-1.25-3.087L33.1,18.7a1.251,1.251,0,1,0-1.775-1.763l-.963.963a7.5,7.5,0,0,0-3.087-1.25v-1.4a1.25,1.25,0,1,0-2.5,0v1.362a7.5,7.5,0,0,0-3.087,1.25l-.963-.962a1.251,1.251,0,0,0-1.775,1.762l.962.963a7.5,7.5,0,0,0-1.25,3.087H17.25a1.25,1.25,0,0,0,0,2.5h1.362a7.5,7.5,0,0,0,1.25,3.087l-.963.962a1.251,1.251,0,0,0,1.775,1.763l.963-.962a7.5,7.5,0,0,0,3.088,1.25V32.75a1.25,1.25,0,0,0,2.5,0V31.388a7.5,7.5,0,0,0,3.088-1.25l.962.962a1.251,1.251,0,0,0,1.775-1.763l-.963-.962a7.5,7.5,0,0,0,1.25-3.087H34.75a1.25,1.25,0,0,0,0-2.5ZM26,29a5,5,0,1,1,5-5A5,5,0,0,1,26,29Z" transform="translate(-16 -14)"/></g></g></svg>