<svg xmlns="http://www.w3.org/2000/svg" width="11.124" height="10.178" viewBox="0 0 11.124 10.178"><g transform="translate(-26 -28)"><path d="M27.391,36.327h1.854v.463a1.389,1.389,0,0,0,1.391,1.388h1.854A1.389,1.389,0,0,0,33.88,36.79v-.463h1.854a1.389,1.389,0,0,0,1.391-1.388V29.388A1.389,1.389,0,0,0,35.734,28H27.391A1.389,1.389,0,0,0,26,29.388v5.552A1.389,1.389,0,0,0,27.391,36.327Zm5.562.463a.463.463,0,0,1-.464.463H30.635a.463.463,0,0,1-.464-.463v-.463h2.781Zm-6.026-7.4a.463.463,0,0,1,.464-.463h8.343a.463.463,0,0,1,.464.463v5.552a.463.463,0,0,1-.464.463H27.391a.463.463,0,0,1-.464-.463Z" transform="translate(0)"/></g></svg>